<svg width="0" height="0" class="hidden">
  <symbol id="chevron" xmlns="http://www.w3.org/2000/svg" viewBox="0 0 51 51">
    <defs></defs>
    <circle cx="25.5" cy="25.5" r="25.5"></circle>
    <rect x="24.4" y="27.9" width="1.6" height="15.24" rx="0.8" transform="matrix(0.78, -0.63, 0.63, 0.78, -21.26, 15.39)"></rect>
    <rect x="33.3" y="27.9" width="1.6" height="15.24" rx="0.8" transform="translate(24 -21.9) rotate(37.3)"></rect>
  </symbol>
  <symbol version="1.1" id="clock" xmlns="http://www.w3.org/2000/svg" xmlns:xlink="http://www.w3.org/1999/xlink" x="0px" y="0px" xml:space="preserve" viewBox="0 0 501.656 501.656">
    <g>
      <g>
        <path d="M342.512,328h-200c-2.122,0-4.156,0.844-5.656,2.344l-96,96l11.312,11.312L145.824,344h187.888
			c-1.664,9.496-6.888,24-23.2,24h-88v16h88c31.64,0,40-31.4,40-48C350.512,331.582,346.93,328,342.512,328z"></path>
      </g>
    </g>
    <g>
      <g>
        <path d="M444.168,274.344c-3.124-3.123-8.188-3.123-11.312,0l-72,72l11.312,11.312l65.712-65.712
			c10.828,14.37,8.629,34.68-5.024,46.4L339.2,432H174.512c-2.122,0-4.156,0.844-5.656,2.344l-56,56l11.312,11.312L177.824,448
			h164.688c2.122,0,4.156-0.844,5.656-2.344l96-96C473.96,319.864,457.192,287.368,444.168,274.344z"></path>
      </g>
    </g>
    <g>
      <g>
        <path d="M262.512,0c-83.947,0-152,68.053-152,152s68.053,152,152,152c83.909-0.093,151.907-68.091,152-152
			C414.512,68.053,346.459,0,262.512,0z M262.512,288c-75.111,0-136-60.889-136-136s60.89-136,136-136
			c75.076,0.084,135.916,60.924,136,136C398.512,227.111,337.623,288,262.512,288z"></path>
      </g>
    </g>
    <g>
      <g>
        <path d="M262.512,40c-61.856,0-112,50.144-112,112s50.145,112,112,112c61.828-0.066,111.934-50.172,112-112
			C374.512,90.144,324.368,40,262.512,40z M270.512,247.666V224h-16v23.666c-46.637-3.848-83.817-41.028-87.666-87.666h23.666v-16
			h-23.666c3.849-46.637,41.029-83.817,87.666-87.666V80h16V56.343c46.612,3.893,83.764,41.045,87.657,87.657h-23.657v16h23.666
			C354.33,206.637,317.15,243.817,270.512,247.666z"></path>
      </g>
    </g>
    <g>
      <g>
        <path d="M284.18,162.33c1.494-3.129,2.333-6.631,2.333-10.33c0-10.449-6.68-19.334-16-22.629V96h-16v33.371
			c-9.32,3.295-16,12.18-16,22.629c-0.001,13.255,10.745,24,23.999,24c3.711,0,7.225-0.843,10.362-2.347l23.977,23.977
			l11.314-11.314L284.18,162.33z M262.512,160c-4.418,0-8-3.582-8-8c0-4.418,3.582-8,8-8c4.418,0,8,3.582,8,8
			C270.512,156.418,266.93,160,262.512,160z"></path>
      </g>
    </g>
    <g></g>
    <g></g>
    <g></g>
    <g></g>
    <g></g>
    <g></g>
    <g></g>
    <g></g>
    <g></g>
    <g></g>
    <g></g>
    <g></g>
    <g></g>
    <g></g>
    <g></g>
  </symbol>
  <symbol xmlns="http://www.w3.org/2000/svg" viewBox="0 0 64 64" id="computer">
    <g id="Computer-Engineer-Coding-Programing-Configulation">
      <path d="m13.293 14.293-3 3a1 1 0 0 0 0 1.414l3 3 1.414-1.414-2.293-2.293 2.293-2.293z"></path>
      <path d="m14.228 17h8.544v2h-8.544z" transform="matrix(.351 -.936 .936 .351 -4.85 29.002)"></path>
      <path d="m23.707 21.707 3-3a1 1 0 0 0 0-1.414l-3-3-1.414 1.414 2.293 2.293-2.293 2.293z"></path>
      <path d="m10 26h4v2h-4z"></path>
      <path d="m16 26h10v2h-10z"></path>
      <path d="m12 30h4v2h-4z"></path>
      <path d="m18 30h10v2h-10z"></path>
      <path d="m30 30h2v2h-2z"></path>
      <path d="m12 34h4v2h-4z"></path>
      <path d="m18 34h10v2h-10z"></path>
      <path d="m30 34h2v2h-2z"></path>
      <path d="m61.142 13.01-2.682-.383a10.86 10.86 0 0 0 -.679-1.639l1.625-2.166a1 1 0 0 0 -.093-1.307l-2.828-2.828a1 1 0 0 0 -1.306-.093l-2.167 1.624a10.9 10.9 0 0 0 -1.639-.678l-.383-2.682a1 1 0 0 0 -.99-.858h-4a1 1 0 0 0 -.99.858l-.383 2.682a10.855 10.855 0 0 0 -1.639.678l-2.167-1.624a1 1 0 0 0 -1.306.093l-2.828 2.828a1 1 0 0 0 -.093 1.307l1.625 2.166a10.86 10.86 0 0 0 -.679 1.639l-2.682.383a1 1 0 0 0 -.858.99v4a1 1 0 0 0 .858.99l2.682.383a10.86 10.86 0 0 0 .679 1.639l-1.625 2.166a1 1 0 0 0 .093 1.307l2.828 2.828a1 1 0 0 0 1.306.093l2.167-1.624a10.855 10.855 0 0 0 1.639.678l.383 2.682a1 1 0 0 0 .99.858h4a1 1 0 0 0 .99-.858l.383-2.682a10.9 10.9 0 0 0 1.639-.678l2.167 1.624a1 1 0 0 0 1.306-.093l2.828-2.828a1 1 0 0 0 .093-1.307l-1.625-2.166a10.86 10.86 0 0 0 .679-1.639l2.682-.383a1 1 0 0 0 .858-.99v-4a1 1 0 0 0 -.858-.99zm-1.142 4.123-2.463.352a1 1 0 0 0 -.827.742 8.923 8.923 0 0 1 -.977 2.357 1 1 0 0 0 .061 1.111l1.492 1.99-1.6 1.6-1.991-1.492a1 1 0 0 0 -1.11-.06 8.859 8.859 0 0 1 -2.356.975 1 1 0 0 0 -.744.828l-.352 2.464h-2.266l-.351-2.463a1 1 0 0 0 -.744-.828 8.859 8.859 0 0 1 -2.356-.975 1 1 0 0 0 -1.11.06l-1.991 1.492-1.6-1.6 1.492-1.99a1 1 0 0 0 .061-1.111 8.923 8.923 0 0 1 -.977-2.357 1 1 0 0 0 -.827-.742l-2.464-.353v-2.266l2.463-.352a1 1 0 0 0 .827-.742 8.923 8.923 0 0 1 .977-2.357 1 1 0 0 0 -.061-1.111l-1.492-1.99 1.6-1.6 1.991 1.492a1 1 0 0 0 1.11.06 8.859 8.859 0 0 1 2.356-.975 1 1 0 0 0 .744-.828l.352-2.464h2.266l.351 2.463a1 1 0 0 0 .744.828 8.859 8.859 0 0 1 2.356.975 1 1 0 0 0 1.11-.06l1.991-1.492 1.6 1.6-1.492 1.99a1 1 0 0 0 -.061 1.111 8.923 8.923 0 0 1 .977 2.357 1 1 0 0 0 .827.742l2.464.353z"></path>
      <path d="m48 10a6 6 0 1 0 6 6 6.006 6.006 0 0 0 -6-6zm0 10a4 4 0 1 1 4-4 4 4 0 0 1 -4 4z"></path>
      <path d="m52 40h-48v-25a3 3 0 0 1 3-3h28v-2h-28a5.006 5.006 0 0 0 -5 5v30a5.006 5.006 0 0 0 5 5h12.867l-.75 6h-2.117a2 2 0 0 0 -2 2v2a2 2 0 0 0 2 2h22a2 2 0 0 0 2-2v-2a2 2 0 0 0 -2-2h-2.117l-.75-6h12.867a5.006 5.006 0 0 0 5-5v-16h-2zm-13 20h-22v-2h22zm-4.133-4h-13.734l.75-6h12.234zm14.133-8h-42a3 3 0 0 1 -3-3v-3h48v3a3 3 0 0 1 -3 3z"></path>
      <path d="m46 44h2v2h-2z"></path>
    </g>
  </symbol>
  <symbol id="logo" version="1.1" xmlns="http://www.w3.org/2000/svg" xmlns:xlink="http://www.w3.org/1999/xlink" viewBox="0, 0, 400,400">
    <g id="svgg">
      <path id="path0" d="M102.667 142.667 C 102.336 142.997,102.310 152.176,102.638 152.505 C 102.769 152.636,103.534 152.373,104.338 151.921 C 113.506 146.763,127.930 143.455,138.600 144.063 L 141.000 144.200 141.200 164.600 L 141.400 185.000 149.000 185.000 L 156.600 185.000 156.800 164.600 L 157.000 144.200 159.400 144.063 C 169.347 143.496,182.981 146.445,192.404 151.202 C 195.736 152.884,195.600 153.046,195.600 147.400 L 195.600 142.400 149.267 142.400 C 123.783 142.400,102.813 142.520,102.667 142.667 M209.783 142.900 C 209.678 143.175,209.639 152.760,209.696 164.200 L 209.800 185.000 217.400 185.000 L 225.000 185.000 225.200 164.600 L 225.400 144.200 237.200 144.081 C 253.715 143.914,258.167 144.928,264.083 150.200 C 272.388 157.602,275.311 172.729,270.400 182.894 C 269.960 183.805,269.600 184.696,269.600 184.875 C 269.600 185.632,282.635 185.245,283.338 184.468 C 288.030 179.284,288.333 165.455,283.939 157.118 C 280.089 149.816,272.488 144.965,261.800 142.992 C 257.446 142.188,210.088 142.104,209.783 142.900 M94.400 199.603 C 92.858 200.622,95.357 200.791,110.600 200.697 C 124.157 200.613,126.200 200.521,126.200 200.000 C 126.200 199.271,95.482 198.888,94.400 199.603 M305.600 199.603 C 304.058 200.622,306.557 200.791,321.800 200.697 C 335.357 200.613,337.400 200.521,337.400 200.000 C 337.400 199.271,306.682 198.888,305.600 199.603 M141.475 215.058 C 141.324 215.209,141.200 224.030,141.200 234.659 L 141.200 253.985 142.100 254.206 C 142.595 254.328,146.060 254.377,149.800 254.314 L 156.600 254.200 156.600 234.600 L 156.600 215.000 149.175 214.891 C 145.092 214.832,141.627 214.907,141.475 215.058 M209.787 215.291 C 209.679 215.571,209.639 224.440,209.696 235.000 L 209.800 254.200 232.200 254.324 C 263.357 254.496,268.241 254.020,276.600 250.000 C 288.802 244.130,295.848 231.896,294.390 219.111 C 293.872 214.569,294.338 214.800,285.709 214.800 L 278.316 214.800 278.567 216.500 C 281.140 233.933,273.216 246.924,257.200 251.524 C 255.380 252.047,252.445 252.160,240.200 252.178 L 225.400 252.200 225.200 233.600 L 225.000 215.000 217.491 214.891 C 211.702 214.807,209.937 214.899,209.787 215.291 " stroke="none" fill="#f5f5f5" fill-rule="evenodd"></path>
      <path id="path1" d="M0.000 200.000 L 0.000 400.000 200.000 400.000 L 400.000 400.000 400.000 200.000 L 400.000 0.000 200.000 0.000 L 0.000 0.000 0.000 200.000 M195.986 142.374 C 196.427 143.197,196.566 151.502,196.157 152.567 C 195.791 153.521,195.106 153.361,191.256 151.428 C 182.299 146.930,170.984 144.495,160.800 144.873 L 157.400 145.000 157.296 165.300 L 157.193 185.600 149.000 185.600 L 140.807 185.600 140.704 165.300 L 140.600 145.000 136.600 144.883 C 126.148 144.578,115.737 146.905,106.277 151.662 C 104.537 152.537,102.863 153.156,102.557 153.039 C 101.968 152.813,101.699 142.435,102.267 141.867 C 103.045 141.088,195.566 141.589,195.986 142.374 M259.198 142.014 C 273.928 143.565,283.787 151.091,287.037 163.268 C 288.469 168.630,287.594 177.664,285.178 182.468 C 283.536 185.732,283.925 185.600,275.938 185.600 C 268.146 185.600,268.338 185.674,269.625 183.152 C 275.631 171.379,270.387 153.205,259.400 147.711 C 253.992 145.007,253.938 145.000,239.200 145.000 L 225.800 145.000 225.696 165.300 L 225.593 185.600 217.396 185.600 L 209.200 185.600 209.200 163.867 C 209.200 151.913,209.320 142.013,209.467 141.867 C 209.894 141.440,255.013 141.573,259.198 142.014 M200.340 193.239 C 202.548 194.009,201.918 194.753,199.262 194.512 C 196.523 194.264,195.105 194.949,194.446 196.841 C 193.359 199.958,197.293 202.653,200.805 201.198 C 202.183 200.627,202.754 200.892,202.029 201.765 C 200.660 203.414,196.095 202.975,194.124 201.004 C 190.458 197.338,195.179 191.440,200.340 193.239 M136.800 193.778 C 136.800 194.184,136.234 194.392,134.900 194.478 L 133.000 194.600 132.969 198.400 C 132.945 201.300,132.810 202.200,132.400 202.200 C 131.990 202.200,131.855 201.300,131.831 198.400 L 131.800 194.600 129.900 194.478 C 128.108 194.363,127.652 194.081,128.267 193.467 C 128.853 192.880,136.800 193.170,136.800 193.778 M141.122 195.329 C 141.264 197.514,141.659 197.716,145.417 197.522 L 147.800 197.400 147.922 195.500 C 148.023 193.926,148.177 193.600,148.822 193.600 C 149.546 193.600,149.600 193.908,149.600 198.000 C 149.600 202.092,149.546 202.400,148.822 202.400 C 148.177 202.400,148.023 202.074,147.922 200.500 L 147.800 198.600 145.417 198.478 C 141.624 198.283,141.200 198.497,141.200 200.608 C 141.200 201.934,141.044 202.400,140.600 202.400 C 140.101 202.400,140.000 201.619,140.000 197.767 C 140.000 192.994,140.849 191.149,141.122 195.329 M161.095 193.883 C 161.210 194.229,160.310 194.400,157.928 194.483 L 154.600 194.600 154.600 196.000 L 154.600 197.400 157.700 197.517 C 159.405 197.581,160.800 197.799,160.800 198.000 C 160.800 198.201,159.405 198.419,157.700 198.483 L 154.600 198.600 154.600 200.000 L 154.600 201.400 158.100 201.516 C 160.025 201.579,161.600 201.791,161.600 201.987 C 161.600 202.337,154.681 202.753,153.700 202.462 C 153.155 202.301,152.953 193.981,153.481 193.453 C 153.974 192.959,160.919 193.352,161.095 193.883 M178.400 193.778 C 178.400 194.184,177.834 194.392,176.500 194.478 L 174.600 194.600 174.569 198.400 C 174.545 201.300,174.410 202.200,174.000 202.200 C 173.590 202.200,173.455 201.300,173.431 198.400 L 173.400 194.600 171.500 194.478 C 169.708 194.363,169.252 194.081,169.867 193.467 C 170.453 192.880,178.400 193.170,178.400 193.778 M189.600 193.800 C 189.600 194.287,188.953 194.400,186.176 194.400 L 182.752 194.400 182.876 195.900 L 183.000 197.400 185.900 197.518 C 187.495 197.582,188.800 197.799,188.800 198.000 C 188.800 198.201,187.495 198.418,185.900 198.482 C 183.031 198.599,182.999 198.612,182.868 199.757 C 182.689 201.324,183.267 201.587,186.900 201.594 C 188.696 201.597,190.000 201.768,190.000 202.000 C 190.000 202.241,188.333 202.400,185.800 202.400 L 181.600 202.400 181.600 197.800 L 181.600 193.200 185.600 193.200 C 188.889 193.200,189.600 193.307,189.600 193.800 M206.557 193.833 C 206.691 194.181,206.800 195.178,206.800 196.049 L 206.800 197.632 210.100 197.516 L 213.400 197.400 213.522 195.274 C 213.604 193.844,213.800 193.200,214.122 193.307 C 214.898 193.564,215.008 202.400,214.235 202.400 C 213.814 202.400,213.609 201.855,213.522 200.500 L 213.400 198.600 210.123 198.484 L 206.845 198.368 206.723 200.284 C 206.485 203.998,205.418 202.750,205.282 198.600 C 205.130 193.939,205.733 191.685,206.557 193.833 M231.050 193.439 C 232.339 193.785,233.096 195.434,232.445 196.476 C 232.010 197.173,232.044 197.516,232.661 198.661 C 234.095 201.324,233.028 202.176,228.086 202.314 L 224.000 202.428 224.000 197.814 L 224.000 193.200 227.100 193.205 C 228.805 193.208,230.583 193.314,231.050 193.439 M237.810 194.100 C 238.298 196.049,237.835 202.200,237.200 202.200 C 236.720 202.200,236.577 201.481,236.482 198.600 C 236.358 194.789,236.569 193.200,237.200 193.200 C 237.412 193.200,237.686 193.605,237.810 194.100 M242.800 197.432 L 243.000 201.400 246.328 201.517 C 251.283 201.690,250.574 202.595,245.466 202.615 L 241.600 202.631 241.600 197.882 C 241.600 191.693,242.494 191.358,242.800 197.432 M254.000 197.432 L 254.200 201.400 257.528 201.517 C 262.483 201.690,261.774 202.595,256.666 202.615 L 252.800 202.631 252.800 197.882 C 252.800 191.693,253.694 191.358,254.000 197.432 M266.140 194.706 C 266.663 195.534,267.575 197.166,268.166 198.332 C 269.474 200.913,269.691 200.864,271.459 197.590 C 274.744 191.504,275.200 191.530,275.200 197.800 C 275.200 201.563,275.094 202.400,274.617 202.400 C 274.166 202.400,274.007 201.696,273.917 199.300 L 273.800 196.200 272.020 199.300 C 270.892 201.265,269.990 202.400,269.557 202.400 C 269.119 202.400,268.246 201.282,267.136 199.300 L 265.400 196.200 265.283 199.300 C 265.193 201.696,265.034 202.400,264.583 202.400 C 264.106 202.400,264.000 201.563,264.000 197.800 C 264.000 192.606,264.426 191.990,266.140 194.706 M284.167 193.443 C 284.515 193.576,284.800 193.824,284.800 193.992 C 284.800 194.161,285.697 195.897,286.793 197.850 C 288.916 201.633,289.153 202.400,288.200 202.400 C 287.870 202.400,287.600 202.254,287.600 202.075 C 287.600 201.897,287.233 201.357,286.784 200.875 C 285.154 199.126,279.600 199.995,279.600 202.000 C 279.600 202.220,279.330 202.400,279.000 202.400 C 278.047 202.400,278.284 201.633,280.407 197.850 C 281.503 195.897,282.400 194.157,282.400 193.983 C 282.400 193.809,282.625 193.576,282.900 193.465 C 283.175 193.354,283.430 193.249,283.467 193.232 C 283.504 193.214,283.819 193.309,284.167 193.443 M296.309 196.600 C 300.181 200.729,300.000 200.719,300.000 196.800 C 300.000 193.849,300.063 193.600,300.814 193.600 C 301.588 193.600,301.622 193.806,301.514 197.895 C 301.366 203.477,301.109 203.537,296.763 199.010 C 292.993 195.083,292.717 195.110,292.886 199.400 C 292.970 201.527,292.867 202.200,292.461 202.200 C 291.998 202.200,291.679 196.828,291.956 193.700 C 292.057 192.561,293.294 193.386,296.309 196.600 M225.200 195.740 C 225.200 197.264,225.673 197.600,227.814 197.600 C 232.336 197.600,232.606 194.665,228.100 194.482 L 225.200 194.365 225.200 195.740 M282.449 196.798 C 281.358 198.740,281.578 199.200,283.600 199.200 C 285.610 199.200,285.788 198.827,284.726 196.838 C 283.649 194.820,283.562 194.818,282.449 196.798 M225.200 199.757 C 225.200 201.340,225.650 201.600,228.388 201.600 C 230.895 201.600,232.334 200.571,231.639 199.273 C 231.223 198.495,230.846 198.400,228.186 198.400 L 225.200 198.400 225.200 199.757 M126.800 199.400 C 127.197 199.879,127.197 200.121,126.800 200.600 C 126.287 201.218,95.784 201.552,94.233 200.957 C 93.480 200.669,93.388 199.352,94.100 199.065 C 95.515 198.494,126.310 198.810,126.800 199.400 M338.000 199.400 C 338.397 199.879,338.397 200.121,338.000 200.600 C 337.487 201.218,306.984 201.552,305.433 200.957 C 304.680 200.669,304.588 199.352,305.300 199.065 C 306.715 198.494,337.510 198.810,338.000 199.400 M157.104 234.500 L 157.000 254.600 149.000 254.600 L 141.000 254.600 140.896 234.500 L 140.793 214.400 149.000 214.400 L 157.207 214.400 157.104 234.500 M225.600 233.000 L 225.600 251.600 239.417 251.600 C 255.492 251.600,257.296 251.367,263.173 248.531 C 274.677 242.981,280.611 229.639,277.774 215.700 L 277.509 214.400 285.765 214.400 L 294.020 214.400 294.467 215.500 C 297.533 223.050,293.272 237.183,285.736 244.454 C 275.983 253.865,270.865 254.892,234.600 254.720 L 209.400 254.600 209.296 234.500 L 209.193 214.400 217.396 214.400 L 225.600 214.400 225.600 233.000 " stroke="none" fill="#040404" fill-rule="evenodd"></path>
      <path id="path2" d="M102.175 142.121 C 101.655 143.475,102.200 152.990,102.800 153.034 C 103.145 153.059,103.188 153.006,102.900 152.909 C 102.533 152.786,102.400 151.310,102.400 147.367 L 102.400 141.993 149.162 142.097 C 174.881 142.154,195.840 142.065,195.738 141.900 C 195.379 141.319,102.398 141.539,102.175 142.121 M209.467 141.867 C 209.320 142.013,209.203 142.328,209.206 142.567 C 209.210 142.826,209.339 142.801,209.528 142.503 C 209.772 142.119,215.172 141.982,233.422 141.900 L 257.000 141.793 233.367 141.697 C 220.368 141.644,209.613 141.720,209.467 141.867 M258.100 142.287 C 258.705 142.378,259.695 142.378,260.300 142.287 C 260.905 142.195,260.410 142.120,259.200 142.120 C 257.990 142.120,257.495 142.195,258.100 142.287 M263.000 142.800 C 263.440 142.989,264.160 143.138,264.600 143.132 C 265.243 143.123,265.204 143.057,264.400 142.800 C 263.032 142.362,261.981 142.362,263.000 142.800 M196.154 147.600 C 196.154 150.350,196.218 151.475,196.296 150.100 C 196.374 148.725,196.374 146.475,196.296 145.100 C 196.218 143.725,196.154 144.850,196.154 147.600 M134.800 144.648 C 137.116 144.945,140.712 144.977,140.539 144.700 C 140.437 144.535,138.878 144.427,137.076 144.460 C 135.274 144.493,134.250 144.578,134.800 144.648 M157.461 144.700 C 157.358 144.865,158.382 144.950,159.737 144.888 C 163.878 144.700,164.369 144.523,160.924 144.460 C 159.122 144.427,157.563 144.535,157.461 144.700 M225.861 144.700 C 225.759 144.865,229.213 144.954,233.538 144.898 C 248.355 144.705,249.791 144.570,237.924 144.485 C 231.392 144.438,225.964 144.535,225.861 144.700 M125.800 145.206 C 125.097 145.388,125.842 145.428,127.600 145.303 C 129.250 145.185,130.675 145.024,130.767 144.944 C 131.075 144.678,127.013 144.891,125.800 145.206 M166.833 144.944 C 166.925 145.024,168.350 145.185,170.000 145.303 C 171.758 145.428,172.503 145.388,171.800 145.206 C 170.587 144.891,166.525 144.678,166.833 144.944 M270.800 144.983 C 270.800 145.163,273.202 146.400,273.550 146.400 C 273.897 146.400,272.294 145.367,271.500 145.079 C 271.115 144.939,270.800 144.896,270.800 144.983 M121.000 146.019 C 120.442 146.271,120.685 146.307,121.800 146.138 C 122.680 146.004,123.475 145.828,123.567 145.747 C 123.910 145.444,121.768 145.671,121.000 146.019 M117.600 146.818 C 117.162 147.115,117.324 147.152,118.200 146.956 C 119.671 146.627,119.990 146.398,118.967 146.406 C 118.545 146.409,117.930 146.595,117.600 146.818 M259.000 147.465 C 260.100 148.030,261.357 148.787,261.793 149.146 C 262.544 149.765,262.556 149.761,262.018 149.069 C 261.469 148.362,257.951 146.381,257.313 146.419 C 257.141 146.429,257.900 146.900,259.000 147.465 M274.000 146.528 C 274.000 146.642,274.675 147.145,275.500 147.647 C 276.325 148.149,278.255 149.738,279.790 151.180 C 281.456 152.745,282.019 153.149,281.190 152.183 C 279.263 149.941,274.000 145.801,274.000 146.528 M114.800 147.618 C 114.362 147.915,114.524 147.952,115.400 147.756 C 116.871 147.427,117.190 147.198,116.167 147.206 C 115.745 147.209,115.130 147.395,114.800 147.618 M264.647 151.601 C 265.773 152.810,267.168 154.517,267.747 155.393 C 268.326 156.269,268.800 156.841,268.800 156.665 C 268.800 156.006,266.406 152.939,264.536 151.201 L 262.600 149.402 264.647 151.601 M192.000 151.800 C 193.430 152.549,194.960 153.154,195.400 153.146 C 196.039 153.134,195.999 153.070,195.200 152.825 C 194.650 152.657,193.261 152.042,192.113 151.460 C 190.966 150.877,189.886 150.409,189.713 150.419 C 189.541 150.430,190.570 151.051,192.000 151.800 M284.678 157.795 C 285.044 158.562,285.414 159.119,285.501 159.032 C 285.684 158.849,284.470 156.400,284.196 156.400 C 284.095 156.400,284.312 157.028,284.678 157.795 M286.406 162.233 C 286.409 162.655,286.595 163.270,286.818 163.600 C 287.115 164.038,287.152 163.876,286.956 163.000 C 286.627 161.529,286.398 161.210,286.406 162.233 M271.268 163.600 C 271.288 164.639,271.918 166.346,271.932 165.400 C 271.938 164.960,271.789 164.240,271.600 163.800 C 271.389 163.310,271.261 163.232,271.268 163.600 M287.309 166.400 C 287.309 167.390,287.387 167.795,287.482 167.300 C 287.578 166.805,287.578 165.995,287.482 165.500 C 287.387 165.005,287.309 165.410,287.309 166.400 M272.144 171.200 C 272.144 173.290,272.212 174.145,272.294 173.100 C 272.376 172.055,272.376 170.345,272.294 169.300 C 272.212 168.255,272.144 169.110,272.144 171.200 M287.393 171.338 C 287.238 172.987,287.192 174.575,287.290 174.868 C 287.388 175.161,287.594 173.891,287.748 172.047 C 287.902 170.203,287.948 168.615,287.851 168.517 C 287.753 168.420,287.547 169.689,287.393 171.338 M271.649 176.600 C 271.616 177.040,271.496 177.850,271.383 178.400 L 271.177 179.400 271.606 178.419 C 271.842 177.879,271.961 177.069,271.872 176.619 C 271.713 175.821,271.707 175.821,271.649 176.600 M286.600 177.200 C 286.448 177.891,286.407 178.541,286.509 178.642 C 286.611 178.744,286.809 178.253,286.950 177.550 C 287.283 175.883,286.960 175.560,286.600 177.200 M283.599 184.500 C 283.010 185.304,282.913 185.584,283.345 185.233 C 284.001 184.700,284.993 183.200,284.689 183.200 C 284.613 183.200,284.122 183.785,283.599 184.500 M197.000 193.200 C 196.286 193.507,196.278 193.547,196.924 193.572 C 197.322 193.587,197.536 193.780,197.400 194.000 C 197.253 194.239,197.737 194.400,198.600 194.400 C 199.463 194.400,199.947 194.239,199.800 194.000 C 199.664 193.780,199.878 193.587,200.276 193.572 C 201.306 193.532,199.723 192.856,198.600 192.856 C 198.160 192.856,197.440 193.011,197.000 193.200 M128.267 193.467 C 127.661 194.073,128.105 194.330,129.981 194.461 C 132.184 194.616,132.200 194.151,130.000 193.893 C 129.230 193.802,130.400 193.729,132.600 193.731 C 134.800 193.733,135.880 193.806,135.000 193.894 C 132.654 194.128,132.496 194.624,134.819 194.461 C 136.187 194.366,136.800 194.149,136.800 193.761 C 136.800 193.168,128.840 192.893,128.267 193.467 M140.390 193.463 C 140.615 193.575,140.800 194.552,140.800 195.633 C 140.800 197.242,140.927 197.599,141.500 197.594 C 141.966 197.590,142.042 197.487,141.728 197.287 C 141.468 197.122,141.198 196.194,141.128 195.225 C 141.054 194.201,140.786 193.420,140.490 193.361 C 140.210 193.305,140.165 193.351,140.390 193.463 M153.378 193.712 C 153.264 194.010,153.229 196.132,153.301 198.427 L 153.431 202.600 153.516 198.100 L 153.600 193.600 157.100 193.678 C 160.568 193.756,160.574 193.758,157.800 193.899 C 156.260 193.977,154.873 194.167,154.718 194.320 C 154.563 194.474,155.969 194.541,157.841 194.470 C 160.225 194.379,161.200 194.199,161.091 193.870 C 160.852 193.150,153.651 193.002,153.378 193.712 M169.867 193.467 C 169.261 194.073,169.705 194.330,171.581 194.461 C 173.784 194.616,173.800 194.151,171.600 193.893 C 170.830 193.802,172.000 193.729,174.200 193.731 C 176.400 193.733,177.480 193.806,176.600 193.894 C 174.254 194.128,174.096 194.624,176.419 194.461 C 177.787 194.366,178.400 194.149,178.400 193.761 C 178.400 193.168,170.440 192.893,169.867 193.467 M185.400 193.591 L 189.400 193.826 186.200 194.033 L 183.000 194.239 186.300 194.320 C 189.002 194.385,189.600 194.291,189.600 193.800 C 189.600 193.301,188.912 193.213,185.500 193.277 L 181.400 193.355 185.400 193.591 M213.886 193.484 C 214.200 193.708,214.419 195.373,214.508 198.215 L 214.644 202.600 214.622 198.033 C 214.604 194.325,214.487 193.435,214.000 193.302 C 213.571 193.186,213.538 193.237,213.886 193.484 M225.712 193.495 C 226.764 193.577,228.384 193.576,229.312 193.492 C 230.240 193.408,229.380 193.341,227.400 193.342 C 225.420 193.343,224.660 193.412,225.712 193.495 M241.600 193.590 C 241.600 193.842,241.780 193.936,242.000 193.800 C 242.257 193.641,242.400 194.996,242.400 197.576 C 242.400 199.789,242.535 201.600,242.700 201.601 C 243.237 201.603,242.650 193.480,242.100 193.298 C 241.825 193.208,241.600 193.339,241.600 193.590 M252.800 193.590 C 252.800 193.842,252.980 193.936,253.200 193.800 C 253.457 193.641,253.600 194.996,253.600 197.576 C 253.600 199.789,253.735 201.600,253.900 201.601 C 254.437 201.603,253.850 193.480,253.300 193.298 C 253.025 193.208,252.800 193.339,252.800 193.590 M264.400 193.455 C 264.730 193.588,265.337 194.080,265.749 194.548 L 266.498 195.400 265.901 194.400 C 265.573 193.850,264.966 193.358,264.552 193.307 C 264.029 193.242,263.983 193.288,264.400 193.455 M273.711 193.700 C 272.934 194.705,272.754 195.371,273.510 194.442 C 273.943 193.911,274.493 193.610,274.745 193.766 C 274.995 193.921,275.200 193.857,275.200 193.624 C 275.200 193.039,274.182 193.091,273.711 193.700 M282.900 193.465 C 282.625 193.576,282.400 193.854,282.400 194.082 C 282.400 194.333,282.638 194.301,283.000 194.000 C 283.479 193.603,283.721 193.603,284.200 194.000 C 284.546 194.287,284.800 194.326,284.800 194.092 C 284.800 193.769,283.756 193.096,283.467 193.232 C 283.430 193.249,283.175 193.354,282.900 193.465 M292.430 193.462 C 292.776 193.555,294.453 195.154,296.156 197.016 C 300.112 201.338,300.400 201.346,300.400 197.133 C 300.400 192.542,300.721 193.377,300.842 198.284 C 300.974 203.606,301.600 203.187,301.600 197.776 C 301.600 193.867,301.549 193.600,300.800 193.600 C 300.067 193.600,300.000 193.867,300.000 196.800 C 300.000 200.719,300.181 200.729,296.309 196.600 C 294.555 194.730,292.823 193.221,292.460 193.246 C 291.887 193.287,291.883 193.315,292.430 193.462 M147.939 195.539 C 147.829 197.071,147.926 197.471,148.400 197.439 C 148.730 197.418,149.000 197.670,149.000 198.000 C 149.000 198.330,148.730 198.582,148.400 198.561 C 147.926 198.529,147.829 198.929,147.939 200.461 C 148.052 202.052,148.214 202.400,148.839 202.400 C 149.541 202.400,149.600 202.059,149.600 198.000 C 149.600 193.941,149.541 193.600,148.839 193.600 C 148.214 193.600,148.052 193.948,147.939 195.539 M195.000 194.000 C 194.864 194.220,194.954 194.400,195.200 194.400 C 195.446 194.400,195.528 194.592,195.383 194.827 C 195.238 195.062,194.868 195.158,194.560 195.040 C 193.973 194.815,192.508 196.641,192.935 197.068 C 193.068 197.202,193.384 196.791,193.636 196.155 C 193.918 195.446,194.171 195.206,194.293 195.535 C 194.401 195.829,194.290 196.270,194.045 196.515 C 193.460 197.100,193.474 198.675,194.068 199.042 C 194.383 199.237,194.452 199.113,194.279 198.662 C 193.927 197.745,194.658 195.944,195.721 195.109 C 196.223 194.714,196.376 194.414,196.076 194.409 C 195.788 194.404,195.664 194.220,195.800 194.000 C 195.936 193.780,195.867 193.600,195.647 193.600 C 195.427 193.600,195.136 193.780,195.000 194.000 M231.777 194.489 C 232.667 195.759,232.549 196.270,231.626 195.144 L 230.851 194.200 231.216 195.800 C 231.688 197.870,231.685 198.000,231.157 198.000 C 230.914 198.000,230.826 197.710,230.962 197.355 C 231.153 196.858,231.049 196.780,230.505 197.016 C 227.714 198.226,225.200 197.655,225.200 195.811 L 225.200 194.438 227.602 194.288 L 230.004 194.138 227.502 194.169 L 225.000 194.200 224.915 197.900 C 224.840 201.170,224.909 201.596,225.515 201.568 C 225.932 201.549,226.004 201.458,225.700 201.335 C 225.425 201.224,225.200 200.518,225.200 199.767 L 225.200 198.400 228.180 198.400 C 230.596 198.400,231.237 198.532,231.568 199.100 C 231.953 199.761,231.976 199.759,231.988 199.076 C 231.996 198.605,232.175 198.458,232.500 198.653 C 232.827 198.850,232.806 198.715,232.440 198.263 C 231.971 197.686,231.966 197.411,232.407 196.586 C 232.954 195.565,232.363 193.600,231.510 193.600 C 231.314 193.600,231.435 194.000,231.777 194.489 M205.348 198.000 C 205.348 200.310,205.414 201.255,205.495 200.100 C 205.576 198.945,205.576 197.055,205.495 195.900 C 205.414 194.745,205.348 195.690,205.348 198.000 M206.514 195.800 C 206.517 196.900,206.595 197.303,206.687 196.695 C 206.779 196.086,206.777 195.186,206.682 194.695 C 206.587 194.203,206.511 194.700,206.514 195.800 M236.548 198.000 C 236.548 200.310,236.614 201.255,236.695 200.100 C 236.776 198.945,236.776 197.055,236.695 195.900 C 236.614 194.745,236.548 195.690,236.548 198.000 M237.748 198.000 C 237.748 200.310,237.814 201.255,237.895 200.100 C 237.976 198.945,237.976 197.055,237.895 195.900 C 237.814 194.745,237.748 195.690,237.748 198.000 M182.400 196.000 C 182.400 196.880,182.540 197.600,182.711 197.600 C 182.881 197.600,182.952 196.880,182.869 196.000 C 182.785 195.120,182.645 194.400,182.558 194.400 C 182.471 194.400,182.400 195.120,182.400 196.000 M283.021 195.089 C 282.808 195.645,282.692 195.672,282.419 195.231 C 282.162 194.815,281.937 194.962,281.484 195.842 C 280.996 196.790,280.982 197.087,281.408 197.482 C 281.817 197.861,281.978 197.835,282.159 197.361 C 282.291 197.019,282.220 196.864,281.995 197.003 C 281.778 197.137,281.600 196.977,281.600 196.647 C 281.600 195.907,282.395 195.349,282.413 196.076 C 282.421 196.399,282.651 196.302,283.013 195.824 C 283.594 195.055,283.606 195.055,284.187 195.824 C 284.549 196.302,284.779 196.399,284.787 196.076 C 284.805 195.349,285.600 195.907,285.600 196.647 C 285.600 196.977,285.420 197.136,285.200 197.000 C 284.769 196.734,284.642 197.309,285.043 197.709 C 285.761 198.428,286.291 196.958,285.716 195.842 C 285.263 194.962,285.038 194.815,284.781 195.231 C 284.508 195.672,284.392 195.645,284.179 195.089 C 284.033 194.710,283.773 194.400,283.600 194.400 C 283.427 194.400,283.167 194.710,283.021 195.089 M273.897 198.518 C 274.121 203.025,274.331 203.295,274.368 199.124 C 274.386 197.212,274.250 195.555,274.067 195.442 C 273.884 195.328,273.808 196.713,273.897 198.518 M292.832 195.900 C 292.853 196.378,292.931 196.429,293.078 196.062 C 293.227 195.687,293.853 196.050,295.146 197.262 L 297.000 199.000 295.217 197.100 C 293.301 195.059,292.782 194.798,292.832 195.900 M264.873 199.100 L 264.947 202.600 265.173 199.400 L 265.400 196.200 266.164 197.600 C 266.656 198.499,266.996 198.800,267.118 198.440 C 267.258 198.025,267.505 198.129,268.075 198.840 C 268.631 199.534,268.553 199.207,267.795 197.660 C 267.218 196.483,266.643 195.624,266.516 195.751 C 266.390 195.877,266.509 196.249,266.781 196.577 C 267.053 196.905,267.201 197.397,267.110 197.670 C 267.017 197.949,266.610 197.603,266.186 196.884 C 265.023 194.915,264.794 195.302,264.873 199.100 M272.243 195.891 C 271.842 196.291,271.969 196.866,272.400 196.600 C 272.620 196.464,272.800 196.623,272.800 196.953 C 272.800 197.735,272.118 198.151,271.899 197.502 C 271.805 197.226,271.415 197.605,271.031 198.344 C 270.648 199.083,270.529 199.568,270.767 199.420 C 271.016 199.266,271.203 199.460,271.206 199.876 C 271.211 200.479,271.275 200.501,271.585 200.011 C 271.825 199.631,271.804 199.326,271.528 199.155 C 271.291 199.009,271.233 198.670,271.399 198.402 C 271.634 198.021,271.768 198.024,272.010 198.416 C 272.226 198.766,272.499 198.568,272.916 197.758 C 273.491 196.642,272.961 195.172,272.243 195.891 M279.478 199.540 C 278.653 201.066,278.568 201.487,279.000 201.882 C 279.416 202.262,279.577 202.236,279.759 201.761 C 279.891 201.419,279.820 201.264,279.595 201.403 C 279.378 201.537,279.200 201.377,279.200 201.047 C 279.200 200.337,279.872 199.823,280.066 200.385 C 280.151 200.633,280.417 200.636,280.800 200.393 C 281.312 200.068,281.297 200.011,280.700 200.006 C 280.315 200.003,280.000 199.760,280.000 199.467 C 280.000 198.632,280.475 198.364,281.073 198.860 C 281.373 199.110,281.700 199.234,281.798 199.136 C 281.896 199.038,281.640 198.670,281.230 198.318 C 280.526 197.716,280.426 197.786,279.478 199.540 M285.830 198.458 C 285.407 198.866,285.261 199.200,285.506 199.200 C 285.752 199.200,286.066 199.017,286.204 198.793 C 286.532 198.263,287.200 198.685,287.200 199.424 C 287.200 199.741,286.923 200.000,286.584 200.000 C 286.091 200.000,286.131 200.174,286.784 200.875 C 287.233 201.357,287.600 201.904,287.600 202.091 C 287.600 202.278,287.850 202.199,288.155 201.916 C 288.627 201.477,288.600 201.190,287.971 200.000 C 286.758 197.706,286.674 197.645,285.830 198.458 M140.870 200.500 L 140.940 202.600 141.097 200.807 C 141.184 199.820,141.468 198.878,141.728 198.713 C 142.042 198.513,141.966 198.410,141.500 198.406 C 140.913 198.401,140.811 198.738,140.870 200.500 M182.400 200.000 C 182.400 201.259,182.549 201.599,183.100 201.594 C 183.654 201.589,183.685 201.515,183.248 201.238 C 182.897 201.016,182.763 200.436,182.879 199.644 C 182.979 198.960,182.913 198.400,182.731 198.400 C 182.549 198.400,182.400 199.120,182.400 200.000 M192.833 198.940 C 192.792 199.861,195.656 202.814,195.898 202.100 C 195.991 201.825,196.367 201.586,196.733 201.568 C 197.280 201.543,197.292 201.497,196.800 201.318 C 196.470 201.197,195.795 200.730,195.300 200.279 C 194.805 199.829,194.400 199.663,194.400 199.910 C 194.400 200.158,194.714 200.536,195.097 200.750 C 195.480 200.965,195.664 201.269,195.506 201.427 C 195.086 201.848,194.023 200.836,193.404 199.427 C 193.032 198.581,192.855 198.430,192.833 198.940 M206.514 200.200 C 206.517 201.300,206.595 201.703,206.687 201.095 C 206.779 200.486,206.777 199.586,206.682 199.095 C 206.587 198.603,206.511 199.100,206.514 200.200 M110.400 199.193 C 124.441 199.372,126.600 199.480,126.600 200.000 C 126.600 200.520,124.441 200.628,110.400 200.807 L 94.200 201.014 110.251 201.107 C 127.302 201.206,128.220 201.111,126.800 199.400 C 126.370 198.882,124.108 198.813,110.251 198.893 L 94.200 198.986 110.400 199.193 M321.600 199.193 C 335.641 199.372,337.800 199.480,337.800 200.000 C 337.800 200.520,335.641 200.628,321.600 200.807 L 305.400 201.014 321.451 201.107 C 335.308 201.187,337.570 201.118,338.000 200.600 C 339.420 198.889,338.502 198.794,321.451 198.893 L 305.400 198.986 321.600 199.193 M268.489 200.643 C 268.167 200.987,268.198 201.314,268.605 201.857 C 269.128 202.557,269.147 202.548,268.933 201.700 C 268.752 200.979,268.875 200.800,269.553 200.800 C 270.019 200.800,270.400 200.991,270.400 201.224 C 270.400 201.457,270.578 201.537,270.796 201.402 C 271.336 201.069,270.464 200.171,269.600 200.171 C 269.231 200.171,268.731 200.383,268.489 200.643 M288.000 201.047 C 288.000 201.377,287.820 201.536,287.600 201.400 C 287.380 201.264,287.200 200.883,287.200 200.553 C 287.200 200.223,287.380 200.064,287.600 200.200 C 287.820 200.336,288.000 200.717,288.000 201.047 M231.024 201.013 C 230.323 201.543,230.315 201.600,230.947 201.600 C 231.332 201.600,231.536 201.780,231.400 202.000 C 231.006 202.638,231.850 202.462,232.408 201.791 C 232.831 201.281,232.805 201.223,232.252 201.435 C 231.761 201.624,231.655 201.523,231.838 201.045 C 232.139 200.261,232.024 200.256,231.024 201.013 M200.800 201.200 C 200.364 201.482,200.343 201.589,200.724 201.594 C 201.012 201.597,201.136 201.780,201.000 202.000 C 200.654 202.560,201.340 202.500,201.920 201.920 C 202.919 200.921,202.073 200.377,200.800 201.200 M197.900 202.682 C 198.395 202.778,199.205 202.778,199.700 202.682 C 200.195 202.587,199.790 202.509,198.800 202.509 C 197.810 202.509,197.405 202.587,197.900 202.682 M246.100 202.687 C 246.705 202.778,247.695 202.778,248.300 202.687 C 248.905 202.595,248.410 202.520,247.200 202.520 C 245.990 202.520,245.495 202.595,246.100 202.687 M257.300 202.687 C 257.905 202.778,258.895 202.778,259.500 202.687 C 260.105 202.595,259.610 202.520,258.400 202.520 C 257.190 202.520,256.695 202.595,257.300 202.687 M277.858 216.800 C 278.175 218.525,278.402 218.851,278.394 217.567 C 278.391 217.035,278.211 216.330,277.994 216.000 C 277.718 215.578,277.677 215.815,277.858 216.800 M278.546 223.400 C 278.547 225.600,278.614 226.449,278.695 225.287 C 278.776 224.124,278.776 222.324,278.693 221.287 C 278.611 220.249,278.545 221.200,278.546 223.400 M294.618 226.618 C 294.465 227.639,294.422 228.555,294.522 228.655 C 294.622 228.755,294.829 228.002,294.982 226.982 C 295.135 225.961,295.178 225.045,295.078 224.945 C 294.978 224.845,294.771 225.598,294.618 226.618 M277.850 229.650 C 277.709 230.353,277.669 231.002,277.759 231.092 C 277.850 231.183,278.048 230.691,278.200 230.000 C 278.352 229.309,278.393 228.659,278.291 228.558 C 278.189 228.456,277.991 228.947,277.850 229.650 M275.482 236.211 C 274.892 237.415,274.494 238.400,274.598 238.400 C 274.867 238.400,276.884 234.351,276.705 234.171 C 276.623 234.089,276.073 235.007,275.482 236.211 M270.826 242.916 C 268.783 245.204,268.645 245.428,270.158 244.000 C 271.813 242.438,273.902 239.968,273.527 240.016 C 273.457 240.025,272.242 241.330,270.826 242.916 M287.036 242.644 C 285.735 244.098,283.953 245.808,283.076 246.444 C 282.198 247.080,281.684 247.600,281.932 247.600 C 282.488 247.600,287.741 242.687,288.849 241.131 C 290.120 239.347,289.588 239.791,287.036 242.644 M266.241 246.827 C 265.383 247.472,264.850 248.000,265.056 248.000 C 265.262 248.000,266.053 247.467,266.815 246.816 C 268.587 245.302,268.261 245.308,266.241 246.827 M262.800 248.800 C 262.030 249.222,261.544 249.574,261.720 249.583 C 262.144 249.605,264.400 248.432,264.400 248.190 C 264.400 247.928,264.377 247.937,262.800 248.800 M278.200 249.612 C 276.660 250.480,275.563 251.193,275.762 251.195 C 276.205 251.201,281.200 248.432,281.200 248.180 C 281.200 247.917,281.243 247.897,278.200 249.612 M257.200 250.800 C 256.376 251.064,256.341 251.126,257.000 251.154 C 257.440 251.173,258.070 251.013,258.400 250.800 C 259.101 250.347,258.614 250.347,257.200 250.800 M239.800 251.600 L 225.400 251.815 239.600 251.868 C 247.410 251.897,254.250 251.776,254.800 251.600 C 255.521 251.369,255.577 251.294,255.000 251.332 C 254.560 251.361,247.720 251.482,239.800 251.600 M141.062 254.500 C 141.164 254.665,144.736 254.800,149.000 254.800 C 153.264 254.800,156.836 254.665,156.938 254.500 C 157.040 254.335,153.468 254.200,149.000 254.200 C 144.532 254.200,140.960 254.335,141.062 254.500 M209.543 254.503 C 209.709 254.670,221.626 254.759,236.023 254.703 L 262.200 254.600 235.720 254.400 C 221.156 254.290,209.376 254.336,209.543 254.503 " stroke="none" fill="#5f5f5f" fill-rule="evenodd"></path>
      <path id="path3" d="M209.386 163.600 C 209.386 175.150,209.437 179.875,209.500 174.100 C 209.562 168.325,209.562 158.875,209.500 153.100 C 209.437 147.325,209.386 152.050,209.386 163.600 M156.983 144.900 C 156.878 145.175,156.839 154.220,156.896 165.000 L 157.000 184.600 157.200 164.500 C 157.310 153.445,157.349 144.400,157.287 144.400 C 157.226 144.400,157.089 144.625,156.983 144.900 M287.309 169.600 C 287.309 170.590,287.387 170.995,287.482 170.500 C 287.578 170.005,287.578 169.195,287.482 168.700 C 287.387 168.205,287.309 168.610,287.309 169.600 M272.493 171.200 C 272.493 171.970,272.575 172.285,272.676 171.900 C 272.776 171.515,272.776 170.885,272.676 170.500 C 272.575 170.115,272.493 170.430,272.493 171.200 M129.505 193.883 C 130.002 193.979,130.722 193.975,131.105 193.875 C 131.487 193.775,131.080 193.696,130.200 193.701 C 129.320 193.705,129.007 193.787,129.505 193.883 M133.900 193.882 C 134.395 193.978,135.205 193.978,135.700 193.882 C 136.195 193.787,135.790 193.709,134.800 193.709 C 133.810 193.709,133.405 193.787,133.900 193.882 M154.400 193.900 C 154.400 194.065,155.345 194.149,156.500 194.086 C 160.282 193.880,160.655 193.721,157.500 193.660 C 155.795 193.627,154.400 193.735,154.400 193.900 M171.105 193.883 C 171.602 193.979,172.322 193.975,172.705 193.875 C 173.087 193.775,172.680 193.696,171.800 193.701 C 170.920 193.705,170.607 193.787,171.105 193.883 M175.500 193.882 C 175.995 193.978,176.805 193.978,177.300 193.882 C 177.795 193.787,177.390 193.709,176.400 193.709 C 175.410 193.709,175.005 193.787,175.500 193.882 M182.799 193.900 C 182.799 194.065,183.834 194.149,185.099 194.087 C 189.113 193.890,189.507 193.722,186.100 193.660 C 184.285 193.627,182.800 193.735,182.799 193.900 M225.400 193.839 C 227.247 194.139,230.400 194.178,230.400 193.900 C 230.400 193.735,229.095 193.625,227.500 193.654 C 225.905 193.684,224.960 193.767,225.400 193.839 M293.357 194.588 C 293.468 195.347,293.866 195.733,294.654 195.849 C 295.125 195.918,295.054 195.697,294.373 194.971 C 293.305 193.834,293.243 193.811,293.357 194.588 M300.542 197.400 C 300.541 199.380,300.608 200.240,300.692 199.312 C 300.776 198.384,300.777 196.764,300.695 195.712 C 300.612 194.660,300.543 195.420,300.542 197.400 M153.600 196.000 C 153.600 196.660,153.780 197.200,154.000 197.200 C 154.220 197.200,154.400 196.660,154.400 196.000 C 154.400 195.340,154.220 194.800,154.000 194.800 C 153.780 194.800,153.600 195.340,153.600 196.000 M193.426 196.771 C 192.715 197.557,192.863 199.200,193.644 199.200 C 193.859 199.200,193.982 199.496,193.918 199.859 C 193.853 200.221,194.030 200.567,194.310 200.629 C 194.591 200.690,194.646 200.652,194.432 200.544 C 194.219 200.436,194.133 200.119,194.241 199.838 C 194.348 199.558,194.158 199.097,193.818 198.815 C 193.027 198.158,193.038 197.642,193.862 196.731 C 194.226 196.329,194.434 196.000,194.324 196.000 C 194.214 196.000,193.810 196.347,193.426 196.771 M148.400 197.570 C 148.933 197.952,148.933 198.048,148.400 198.430 C 147.867 198.813,147.867 198.843,148.400 198.697 C 148.730 198.607,149.000 198.293,149.000 198.000 C 149.000 197.707,148.730 197.393,148.400 197.303 C 147.867 197.157,147.867 197.187,148.400 197.570 M153.600 200.000 C 153.600 200.660,153.780 201.200,154.000 201.200 C 154.220 201.200,154.400 200.660,154.400 200.000 C 154.400 199.340,154.220 198.800,154.000 198.800 C 153.780 198.800,153.600 199.340,153.600 200.000 M197.800 202.000 C 197.936 202.220,198.307 202.400,198.624 202.400 C 198.941 202.400,199.200 202.220,199.200 202.000 C 199.200 201.780,198.829 201.600,198.376 201.600 C 197.923 201.600,197.664 201.780,197.800 202.000 M243.200 202.000 C 243.200 202.466,245.745 202.466,247.200 202.000 C 247.943 201.762,247.558 201.670,245.700 201.640 C 244.273 201.617,243.200 201.772,243.200 202.000 M254.400 202.000 C 254.400 202.466,256.945 202.466,258.400 202.000 C 259.143 201.762,258.758 201.670,256.900 201.640 C 255.473 201.617,254.400 201.772,254.400 202.000 M156.985 234.800 C 156.985 245.470,157.037 249.835,157.100 244.500 C 157.163 239.165,157.163 230.435,157.100 225.100 C 157.037 219.765,156.985 224.130,156.985 234.800 M209.385 234.800 C 209.385 245.470,209.437 249.835,209.500 244.500 C 209.563 239.165,209.563 230.435,209.500 225.100 C 209.437 219.765,209.385 224.130,209.385 234.800 M278.901 223.800 C 278.905 224.680,278.987 224.993,279.083 224.495 C 279.179 223.998,279.175 223.278,279.075 222.895 C 278.975 222.513,278.896 222.920,278.901 223.800 " stroke="none" fill="#7c7c7c" fill-rule="evenodd"></path>
      <path id="path4" d="M102.662 142.300 C 102.494 142.571,135.073 142.569,178.800 142.295 C 187.930 142.238,174.576 142.148,149.124 142.095 C 123.672 142.043,102.764 142.135,102.662 142.300 M209.862 142.300 C 209.693 142.572,226.014 142.568,247.200 142.290 C 251.710 142.231,245.196 142.142,232.724 142.091 C 220.252 142.041,209.964 142.135,209.862 142.300 M195.600 147.447 C 195.600 152.298,195.569 152.485,194.799 152.284 C 194.359 152.169,194.100 152.238,194.223 152.437 C 194.346 152.637,194.797 152.800,195.224 152.800 C 195.952 152.800,196.000 152.481,196.000 147.600 C 196.000 144.740,195.910 142.400,195.800 142.400 C 195.690 142.400,195.600 144.671,195.600 147.447 M265.000 143.600 C 265.440 143.789,266.070 143.944,266.400 143.944 C 266.778 143.944,266.704 143.817,266.200 143.600 C 265.760 143.411,265.130 143.256,264.800 143.256 C 264.422 143.256,264.496 143.383,265.000 143.600 M136.700 144.291 L 140.800 144.428 140.800 164.534 C 140.800 179.639,140.919 184.759,141.280 185.120 C 141.819 185.659,156.211 185.829,156.539 185.300 C 156.641 185.135,153.276 185.000,149.062 185.000 L 141.400 185.000 141.200 164.600 L 141.000 144.200 136.800 144.177 L 132.600 144.154 136.700 144.291 M157.060 144.300 C 156.958 144.465,158.162 144.551,159.737 144.491 C 164.882 144.294,165.476 144.136,161.324 144.067 C 159.082 144.030,157.163 144.135,157.060 144.300 M225.387 144.500 C 225.284 144.775,225.155 154.000,225.100 165.000 L 225.000 185.000 217.338 185.000 C 213.124 185.000,209.759 185.135,209.861 185.300 C 210.189 185.829,224.581 185.659,225.120 185.120 C 225.481 184.759,225.600 179.629,225.600 164.491 L 225.600 144.343 239.086 144.471 C 246.503 144.542,252.038 144.486,251.386 144.347 C 248.950 143.828,225.588 143.966,225.387 144.500 M129.705 144.687 C 130.314 144.779,131.214 144.777,131.705 144.682 C 132.197 144.587,131.700 144.511,130.600 144.514 C 129.500 144.517,129.097 144.595,129.705 144.687 M166.505 144.687 C 167.114 144.779,168.014 144.777,168.505 144.682 C 168.997 144.587,168.500 144.511,167.400 144.514 C 166.300 144.517,165.897 144.595,166.505 144.687 M123.400 145.200 C 122.330 145.472,122.308 145.505,123.200 145.505 C 123.750 145.505,124.740 145.368,125.400 145.200 C 126.470 144.928,126.492 144.895,125.600 144.895 C 125.050 144.895,124.060 145.032,123.400 145.200 M172.600 145.200 C 174.292 145.631,175.744 145.631,174.400 145.200 C 173.850 145.024,172.950 144.883,172.400 144.887 C 171.502 144.894,171.522 144.926,172.600 145.200 M119.400 146.000 C 118.896 146.217,118.822 146.344,119.200 146.344 C 119.530 146.344,120.160 146.189,120.600 146.000 C 121.104 145.783,121.178 145.656,120.800 145.656 C 120.470 145.656,119.840 145.811,119.400 146.000 M279.583 151.300 C 280.564 152.345,281.419 153.200,281.483 153.200 C 281.784 153.200,281.466 152.841,279.700 151.183 L 277.800 149.400 279.583 151.300 M282.655 155.000 C 283.267 155.880,283.820 156.675,283.884 156.767 C 283.948 156.858,284.000 156.762,284.000 156.552 C 284.000 156.342,283.447 155.547,282.771 154.785 L 281.542 153.400 282.655 155.000 M286.468 163.600 C 286.488 164.639,287.118 166.346,287.132 165.400 C 287.138 164.960,286.989 164.240,286.800 163.800 C 286.589 163.310,286.461 163.232,286.468 163.600 M272.288 167.400 C 272.411 168.720,272.576 169.875,272.656 169.967 C 272.935 170.289,272.716 166.988,272.393 166.000 C 272.189 165.379,272.149 165.909,272.288 167.400 M272.501 173.800 C 272.505 174.680,272.587 174.993,272.683 174.495 C 272.779 173.998,272.775 173.278,272.675 172.895 C 272.575 172.513,272.496 172.920,272.501 173.800 M286.622 175.422 C 286.472 176.225,286.428 176.962,286.526 177.060 C 286.624 177.157,286.827 176.581,286.978 175.778 C 287.128 174.975,287.172 174.238,287.074 174.140 C 286.976 174.043,286.773 174.619,286.622 175.422 M283.200 184.600 C 282.597 185.327,269.817 185.503,269.463 184.790 C 269.351 184.565,269.306 184.610,269.363 184.890 C 269.563 185.880,282.490 185.805,283.392 184.809 C 283.794 184.364,284.028 184.000,283.911 184.000 C 283.794 184.000,283.474 184.270,283.200 184.600 M131.938 197.700 C 132.069 201.576,132.183 202.357,132.562 201.967 C 133.110 201.402,132.959 193.599,132.400 193.599 C 131.897 193.599,131.822 194.260,131.938 197.700 M153.600 194.200 C 153.600 194.530,153.780 194.800,154.000 194.800 C 154.220 194.800,154.400 194.530,154.400 194.200 C 154.400 193.870,154.220 193.600,154.000 193.600 C 153.780 193.600,153.600 193.870,153.600 194.200 M173.538 197.700 C 173.669 201.576,173.783 202.357,174.162 201.967 C 174.710 201.402,174.559 193.599,174.000 193.599 C 173.497 193.599,173.422 194.260,173.538 197.700 M181.772 194.130 C 181.660 194.422,181.620 196.357,181.684 198.430 L 181.800 202.200 185.500 202.315 C 187.863 202.388,189.200 202.280,189.200 202.015 C 189.200 201.761,187.882 201.600,185.800 201.600 L 182.400 201.600 182.400 200.000 L 182.400 198.400 185.400 198.400 C 187.133 198.400,188.400 198.231,188.400 198.000 C 188.400 197.768,187.116 197.600,185.349 197.600 L 182.298 197.600 182.490 195.600 C 182.668 193.752,182.247 192.891,181.772 194.130 M205.600 197.800 C 205.600 200.121,205.766 202.000,205.972 202.000 C 206.177 202.000,206.346 200.116,206.350 197.800 C 206.354 195.423,206.192 193.600,205.978 193.600 C 205.765 193.600,205.600 195.427,205.600 197.800 M224.193 194.073 C 224.070 194.396,224.020 196.357,224.084 198.430 L 224.200 202.200 227.700 202.316 C 229.928 202.389,231.200 202.280,231.200 202.016 C 231.200 201.763,229.945 201.600,227.995 201.600 L 224.791 201.600 224.861 197.799 C 224.928 194.173,224.682 192.799,224.193 194.073 M230.400 194.000 C 230.400 194.220,230.670 194.400,231.000 194.400 C 231.330 194.400,231.600 194.610,231.600 194.867 C 231.600 195.123,231.716 195.218,231.857 195.076 C 232.155 194.779,231.272 193.600,230.751 193.600 C 230.558 193.600,230.400 193.780,230.400 194.000 M236.800 197.800 C 236.800 200.333,236.959 202.000,237.200 202.000 C 237.441 202.000,237.600 200.333,237.600 197.800 C 237.600 195.267,237.441 193.600,237.200 193.600 C 236.959 193.600,236.800 195.267,236.800 197.800 M264.267 193.867 C 263.829 194.305,263.955 202.000,264.400 202.000 C 264.635 202.000,264.800 200.600,264.800 198.600 C 264.800 195.419,265.182 194.335,265.767 195.857 C 265.905 196.219,266.105 196.428,266.211 196.322 C 266.468 196.065,265.224 193.600,264.837 193.600 C 264.670 193.600,264.413 193.720,264.267 193.867 M273.470 194.780 C 273.135 195.451,273.028 196.000,273.231 196.000 C 273.434 196.000,273.600 195.820,273.600 195.600 C 273.600 195.380,273.780 195.200,274.000 195.200 C 274.235 195.200,274.400 196.600,274.400 198.600 C 274.400 200.677,274.561 202.000,274.814 202.000 C 275.410 202.000,275.142 193.912,274.539 193.712 C 274.286 193.628,273.805 194.109,273.470 194.780 M282.792 194.210 C 282.514 194.545,282.411 194.945,282.565 195.098 C 282.718 195.251,283.014 195.112,283.222 194.788 C 283.555 194.271,283.645 194.271,283.978 194.788 C 284.186 195.112,284.482 195.251,284.635 195.098 C 284.933 194.800,284.104 193.600,283.600 193.600 C 283.434 193.600,283.070 193.874,282.792 194.210 M292.000 197.800 C 292.000 200.333,292.159 202.000,292.400 202.000 C 292.635 202.000,292.800 200.622,292.800 198.667 C 292.800 194.276,292.701 194.274,297.049 198.730 C 300.095 201.853,300.801 202.407,300.703 201.600 C 300.635 201.039,300.355 200.647,300.067 200.708 C 299.571 200.812,298.825 200.112,294.684 195.660 C 292.093 192.874,292.000 192.948,292.000 197.800 M140.000 198.000 C 140.000 200.400,140.160 202.000,140.400 202.000 C 140.620 202.000,140.800 201.190,140.800 200.200 L 140.800 198.400 144.800 198.400 C 147.200 198.400,148.800 198.240,148.800 198.000 C 148.800 197.760,147.200 197.600,144.800 197.600 L 140.800 197.600 140.800 195.800 C 140.800 194.810,140.620 194.000,140.400 194.000 C 140.160 194.000,140.000 195.600,140.000 198.000 M213.652 198.000 C 213.652 200.214,213.819 202.000,214.026 202.000 C 214.233 202.000,214.400 200.214,214.400 198.000 C 214.400 195.786,214.233 194.000,214.026 194.000 C 213.819 194.000,213.652 195.786,213.652 198.000 M241.600 198.013 C 241.600 201.929,242.095 203.294,243.117 202.195 C 243.273 202.027,243.175 201.810,242.900 201.712 C 242.548 201.586,242.400 200.418,242.400 197.767 C 242.400 195.522,242.238 194.000,242.000 194.000 C 241.760 194.000,241.600 195.604,241.600 198.013 M252.800 198.013 C 252.800 201.929,253.295 203.294,254.317 202.195 C 254.473 202.027,254.375 201.810,254.100 201.712 C 253.748 201.586,253.600 200.418,253.600 197.767 C 253.600 195.522,253.438 194.000,253.200 194.000 C 252.960 194.000,252.800 195.604,252.800 198.013 M194.264 195.129 C 193.899 195.533,193.600 196.018,193.600 196.207 C 193.600 196.396,193.978 196.145,194.440 195.649 C 194.902 195.153,195.201 194.668,195.104 194.571 C 195.008 194.474,194.630 194.725,194.264 195.129 M153.600 198.000 C 153.600 198.577,158.963 198.717,159.567 198.155 C 159.931 197.816,159.278 197.683,156.500 197.532 C 154.068 197.399,153.600 197.475,153.600 198.000 M206.400 198.000 C 206.400 198.237,207.867 198.400,210.000 198.400 C 212.133 198.400,213.600 198.237,213.600 198.000 C 213.600 197.763,212.133 197.600,210.000 197.600 C 207.867 197.600,206.400 197.763,206.400 198.000 M232.000 200.000 C 232.000 200.660,232.180 201.200,232.400 201.200 C 232.620 201.200,232.800 200.660,232.800 200.000 C 232.800 199.340,232.620 198.800,232.400 198.800 C 232.180 198.800,232.000 199.340,232.000 200.000 M279.704 199.874 C 279.431 200.461,279.292 201.026,279.395 201.128 C 279.497 201.231,279.695 201.019,279.833 200.657 C 280.207 199.685,286.993 199.685,287.367 200.657 C 287.505 201.019,287.703 201.231,287.805 201.128 C 288.068 200.865,287.069 198.807,286.676 198.803 C 286.498 198.801,286.436 198.935,286.538 199.100 C 286.640 199.265,285.318 199.400,283.600 199.400 C 281.882 199.400,280.560 199.265,280.662 199.100 C 280.764 198.935,280.702 198.801,280.524 198.803 C 280.346 198.805,279.977 199.287,279.704 199.874 M93.800 199.600 C 93.485 200.110,93.904 200.802,94.524 200.794 C 94.811 200.790,94.762 200.632,94.400 200.394 C 93.867 200.044,93.867 199.956,94.400 199.606 C 94.762 199.368,94.811 199.210,94.524 199.206 C 94.262 199.203,93.936 199.380,93.800 199.600 M305.000 199.600 C 304.685 200.110,305.104 200.802,305.724 200.794 C 306.011 200.790,305.962 200.632,305.600 200.394 C 305.067 200.044,305.067 199.956,305.600 199.606 C 305.962 199.368,306.011 199.210,305.724 199.206 C 305.462 199.203,305.136 199.380,305.000 199.600 M268.175 200.000 C 268.298 200.330,268.511 200.915,268.646 201.300 C 268.782 201.685,269.122 202.000,269.401 202.000 C 269.980 202.000,271.379 200.046,271.041 199.708 C 270.919 199.586,270.705 199.781,270.567 200.143 C 270.237 201.002,269.236 200.981,268.519 200.100 C 268.126 199.617,268.020 199.586,268.175 200.000 M153.600 201.800 C 153.600 202.289,154.267 202.400,157.200 202.400 C 159.498 202.400,160.800 202.245,160.800 201.971 C 160.800 201.689,159.646 201.586,157.437 201.671 C 155.587 201.742,154.158 201.665,154.260 201.500 C 154.363 201.335,154.257 201.200,154.024 201.200 C 153.791 201.200,153.600 201.470,153.600 201.800 M196.200 202.000 C 196.336 202.220,196.807 202.400,197.247 202.400 C 197.687 202.400,197.936 202.220,197.800 202.000 C 197.664 201.780,197.193 201.600,196.753 201.600 C 196.313 201.600,196.064 201.780,196.200 202.000 M199.200 202.000 C 199.200 202.220,199.560 202.400,200.000 202.400 C 200.440 202.400,200.800 202.220,200.800 202.000 C 200.800 201.780,200.440 201.600,200.000 201.600 C 199.560 201.600,199.200 201.780,199.200 202.000 M247.200 202.000 C 246.308 202.286,246.361 202.325,247.700 202.360 C 248.525 202.382,249.200 202.220,249.200 202.000 C 249.200 201.542,248.630 201.542,247.200 202.000 M258.400 202.000 C 257.508 202.286,257.561 202.325,258.900 202.360 C 259.725 202.382,260.400 202.220,260.400 202.000 C 260.400 201.542,259.830 201.542,258.400 202.000 M141.245 214.946 C 140.475 215.873,140.820 254.084,141.600 254.297 C 142.048 254.419,142.073 254.371,141.696 254.104 C 141.300 253.824,141.215 249.593,141.296 234.374 L 141.400 215.000 149.062 215.000 C 153.276 215.000,156.641 214.865,156.539 214.700 C 156.176 214.115,141.742 214.347,141.245 214.946 M209.861 214.700 C 209.759 214.865,213.124 215.000,217.338 215.000 L 225.000 215.000 225.200 233.600 L 225.400 252.200 238.800 252.208 L 252.200 252.216 238.900 252.103 L 225.600 251.989 225.600 233.675 C 225.600 219.963,225.479 215.239,225.120 214.880 C 224.581 214.341,210.189 214.171,209.861 214.700 M278.054 215.500 C 278.101 216.443,278.134 216.472,278.282 215.700 C 278.455 214.806,278.504 214.800,285.748 214.800 C 293.374 214.800,293.953 214.924,294.046 216.580 C 294.087 217.296,294.117 217.308,294.281 216.670 C 294.791 214.701,293.632 214.400,285.538 214.400 L 278.000 214.400 278.054 215.500 M278.688 219.800 C 278.811 221.120,278.976 222.275,279.056 222.367 C 279.335 222.689,279.116 219.388,278.793 218.400 C 278.589 217.779,278.549 218.309,278.688 219.800 M294.447 219.433 C 294.473 220.295,294.639 221.540,294.815 222.200 C 295.018 222.956,295.054 222.438,294.915 220.800 C 294.667 217.886,294.375 217.031,294.447 219.433 M294.501 225.000 C 294.505 225.880,294.587 226.193,294.683 225.695 C 294.779 225.198,294.775 224.478,294.675 224.095 C 294.575 223.713,294.496 224.120,294.501 225.000 M278.655 227.055 C 278.513 228.086,278.474 229.008,278.569 229.102 C 278.663 229.196,278.865 228.439,279.018 227.418 C 279.171 226.398,279.210 225.476,279.104 225.371 C 278.998 225.265,278.796 226.023,278.655 227.055 M275.152 237.700 C 274.890 238.195,274.415 239.050,274.096 239.600 C 273.539 240.559,273.543 240.567,274.188 239.800 C 274.986 238.852,276.105 236.800,275.824 236.800 C 275.716 236.800,275.414 237.205,275.152 237.700 M285.225 243.947 C 281.927 247.321,282.066 247.442,285.533 244.214 C 286.977 242.869,289.168 240.285,288.727 240.447 C 288.657 240.473,287.081 242.048,285.225 243.947 M270.414 243.790 L 267.828 246.600 270.596 243.915 C 272.118 242.438,273.281 241.173,273.181 241.105 C 273.082 241.036,271.836 242.244,270.414 243.790 M255.200 251.600 C 254.396 251.857,254.357 251.923,255.000 251.932 C 255.440 251.938,256.160 251.789,256.600 251.600 C 257.619 251.162,256.568 251.162,255.200 251.600 M267.400 253.200 C 266.896 253.417,266.822 253.544,267.200 253.544 C 267.530 253.544,268.160 253.389,268.600 253.200 C 269.104 252.983,269.178 252.856,268.800 252.856 C 268.470 252.856,267.840 253.011,267.400 253.200 M260.400 254.000 L 257.800 254.262 260.200 254.284 C 261.520 254.296,263.140 254.168,263.800 254.000 C 265.321 253.613,264.243 253.613,260.400 254.000 " stroke="none" fill="#848484" fill-rule="evenodd"></path>
    </g>
  </symbol>
  <symbol xmlns="http://www.w3.org/2000/svg" viewBox="0 0 512 512" id="easy">
    <g id="Out_line">
      <path d="m184 304h-112a8.00008 8.00008 0 0 0 -8 8v96a8.00008 8.00008 0 0 0 8 8h112a8.00008 8.00008 0 0 0 8-8v-96a8.00008 8.00008 0 0 0 -8-8zm-8 96h-96v-80h96z"></path>
      <path d="m96 336h32v16h-32z"></path>
      <path d="m128 368h32v16h-32z"></path>
      <path d="m380 64h-244v-40a7.99985 7.99985 0 0 0 -12.87793-6.34082l-104 80a8 8 0 0 0 0 12.68164l104 80a7.99985 7.99985 0 0 0 12.87793-6.34082v-40h216a64.07239 64.07239 0 0 1 64 64v144a63.89737 63.89737 0 0 1 -48 61.99341v-181.99341a8.00008 8.00008 0 0 0 -8-8h-336a8.00008 8.00008 0 0 0 -8 8v256a8.00008 8.00008 0 0 0 8 8h356a116.13134 116.13134 0 0 0 116-116v-200a116.13134 116.13134 0 0 0 -116-116zm-28 176v192h-112v-192zm-208 0v32h-32v-32zm-112 0h64v40a8.00008 8.00008 0 0 0 8 8h48a8.00008 8.00008 0 0 0 8-8v-40h64v192h-192zm448 140a100.113 100.113 0 0 1 -100 100h-348v-32h328a8.00008 8.00008 0 0 0 8-8v-9.605a79.86446 79.86446 0 0 0 64-78.395v-144a80.09041 80.09041 0 0 0 -80-80h-224a8.00008 8.00008 0 0 0 -8 8v31.75293l-82.87891-63.75293 82.87891-63.75293v31.75293a8.00008 8.00008 0 0 0 8 8h252a100.113 100.113 0 0 1 100 100z"></path>
      <path d="m320 400h16v16h-16z"></path>
      <path d="m288 400h16v16h-16z"></path>
      <path d="m256 400h16v16h-16z"></path>
    </g>
  </symbol>
  <symbol id="growth" enable-background="new 0 0 512 512" xmlns="http://www.w3.org/2000/svg" viewBox="0 0 512 512">
    <g>
      <g>
        <path d="m504.5 480.837h-38.97v-240.347c0-4.142-3.357-7.5-7.5-7.5s-7.5 3.358-7.5 7.5v240.347h-49.648l-.002-318.357h49.65v43.01c0 4.142 3.357 7.5 7.5 7.5s7.5-3.358 7.5-7.5v-50.51c0-4.142-3.357-7.5-7.5-7.5h-64.65c-4.143 0-7.5 3.358-7.5 7.5v43.012h-57.148c-4.143 0-7.5 3.358-7.5 7.5v43.008h-57.15c-4.143 0-7.5 3.358-7.5 7.5v43.008h-57.15c-4.143 0-7.5 3.358-7.5 7.5v43.008h-57.15c-4.143 0-7.5 3.358-7.5 7.5v38.964h-57.152c-4.143 0-7.5 3.358-7.5 7.5v20.89c0 4.142 3.357 7.5 7.5 7.5s7.5-3.358 7.5-7.5v-13.39h49.65v69.857h-49.65v-21.467c0-4.142-3.357-7.5-7.5-7.5s-7.5 3.358-7.5 7.5v21.467h-31.467v-473.337c0-4.142-3.357-7.5-7.5-7.5s-7.5 3.358-7.5 7.5v38.967h-8.663c-4.143 0-7.5 3.358-7.5 7.5s3.357 7.5 7.5 7.5h8.663v49.65h-8.663c-4.143 0-7.5 3.358-7.5 7.5s3.357 7.5 7.5 7.5h8.663v49.65h-8.663c-4.143 0-7.5 3.358-7.5 7.5s3.357 7.5 7.5 7.5h8.663v49.65h-8.663c-4.143 0-7.5 3.358-7.5 7.5s3.357 7.5 7.5 7.5h8.663v49.651h-8.663c-4.143 0-7.5 3.358-7.5 7.5s3.357 7.5 7.5 7.5h8.663v49.65h-8.663c-4.143 0-7.5 3.358-7.5 7.5s3.357 7.5 7.5 7.5h8.663v49.65h-8.663c-4.143 0-7.5 3.358-7.5 7.5s3.357 7.5 7.5 7.5h8.663v38.967c0 4.142 3.357 7.5 7.5 7.5h38.967v8.663c0 4.142 3.357 7.5 7.5 7.5s7.5-3.358 7.5-7.5v-8.66h49.65v8.66c0 4.142 3.357 7.5 7.5 7.5s7.5-3.358 7.5-7.5v-8.663h49.65v8.663c0 4.142 3.357 7.5 7.5 7.5s7.5-3.358 7.5-7.5v-8.663h49.65v8.663c0 4.142 3.357 7.5 7.5 7.5s7.5-3.358 7.5-7.5v-8.663h49.65v8.663c0 4.142 3.357 7.5 7.5 7.5s7.5-3.358 7.5-7.5v-8.663h49.65v8.663c0 4.142 3.357 7.5 7.5 7.5s7.5-3.358 7.5-7.5v-8.66h49.65v8.66c0 4.142 3.357 7.5 7.5 7.5s7.5-3.358 7.5-7.5v-8.663h38.97c4.143 0 7.5-3.358 7.5-7.5s-3.357-7.498-7.5-7.498zm-362.22-116.321h49.65v116.321h-49.65zm64.651-50.508h49.65v166.829h-49.65zm64.65-50.508h49.65v217.337h-49.65zm64.65-50.508h49.648v267.846h-49.648z"></path>
        <path d="m86.1 338.44c6.323 0 12.267-2.46 16.734-6.927l112.91-112.91c2.929-2.929 2.929-7.678 0-10.606-2.93-2.929-7.678-2.929-10.607 0l-112.909 112.909c-1.635 1.634-3.811 2.534-6.128 2.534-2.311 0-4.482-.9-6.116-2.533-1.64-1.64-2.543-3.817-2.543-6.13 0-2.311.901-4.484 2.543-6.123l263.521-263.52c2.145-2.145 2.786-5.371 1.625-8.173-1.16-2.803-3.896-4.63-6.929-4.63h-23.61c-4.775 0-8.66-3.889-8.66-8.67 0-4.775 3.885-8.66 8.66-8.66h62.63c4.775 0 8.66 3.885 8.66 8.66v62.63c0 4.781-3.885 8.67-8.66 8.67s-8.66-3.889-8.66-8.67v-23.611c0-3.034-1.827-5.768-4.63-6.929-2.804-1.161-6.027-.518-8.174 1.626l-125.88 125.88c-2.929 2.929-2.929 7.678 0 10.606 2.93 2.929 7.678 2.929 10.607 0l113.076-113.076v5.503c0 13.052 10.614 23.67 23.66 23.67s23.66-10.618 23.66-23.67v-62.63c0-13.046-10.614-23.66-23.66-23.66h-62.63c-13.046 0-23.66 10.614-23.66 23.66 0 13.052 10.614 23.67 23.66 23.67h5.504l-250.714 250.713c-4.475 4.469-6.939 10.412-6.939 16.733 0 6.32 2.463 12.264 6.937 16.737 4.466 4.467 10.405 6.927 16.722 6.927z"></path>
      </g>
    </g>
  </symbol>
  <symbol xmlns="http://www.w3.org/2000/svg" viewBox="0 0 50 2" id="line">
    <path fill="#63c3ef" d="M0 0h50v2H0z"></path>
  </symbol>
  <symbol id="menu" enable-background="new 0 0 24 24" xmlns="http://www.w3.org/2000/svg" viewBox="0 0 24 24">
    <g>
      <path d="m21.5 24h-19c-1.379 0-2.5-1.122-2.5-2.5v-19c0-1.378 1.121-2.5 2.5-2.5h19c1.379 0 2.5 1.122 2.5 2.5v19c0 1.378-1.121 2.5-2.5 2.5zm-19-23c-.827 0-1.5.673-1.5 1.5v19c0 .827.673 1.5 1.5 1.5h19c.827 0 1.5-.673 1.5-1.5v-19c0-.827-.673-1.5-1.5-1.5z"></path>
    </g>
    <g>
      <path d="m16.5 8h-9c-.276 0-.5-.224-.5-.5s.224-.5.5-.5h9c.276 0 .5.224.5.5s-.224.5-.5.5z"></path>
    </g>
    <g>
      <path d="m16.5 12.5h-9c-.276 0-.5-.224-.5-.5s.224-.5.5-.5h9c.276 0 .5.224.5.5s-.224.5-.5.5z"></path>
    </g>
    <g>
      <path d="m16.5 17h-9c-.276 0-.5-.224-.5-.5s.224-.5.5-.5h9c.276 0 .5.224.5.5s-.224.5-.5.5z"></path>
    </g>
  </symbol>
  <symbol version="1.1" id="quotes" xmlns="http://www.w3.org/2000/svg" xmlns:xlink="http://www.w3.org/1999/xlink" x="0px" y="0px" xml:space="preserve" viewBox="0 0 508.044 508.044">
    <g>
      <g>
        <path d="M0.108,352.536c0,66.794,54.144,120.938,120.937,120.938c66.794,0,120.938-54.144,120.938-120.938
			s-54.144-120.937-120.938-120.937c-13.727,0-26.867,2.393-39.168,6.61C109.093,82.118,230.814-18.543,117.979,64.303
			C-7.138,156.17-0.026,348.84,0.114,352.371C0.114,352.426,0.108,352.475,0.108,352.536z"></path>
        <path d="M266.169,352.536c0,66.794,54.144,120.938,120.938,120.938s120.938-54.144,120.938-120.938S453.9,231.599,387.106,231.599
			c-13.728,0-26.867,2.393-39.168,6.61C375.154,82.118,496.875-18.543,384.04,64.303C258.923,156.17,266.034,348.84,266.175,352.371
			C266.175,352.426,266.169,352.475,266.169,352.536z"></path>
      </g>
    </g>
    <g></g>
    <g></g>
    <g></g>
    <g></g>
    <g></g>
    <g></g>
    <g></g>
    <g></g>
    <g></g>
    <g></g>
    <g></g>
    <g></g>
    <g></g>
    <g></g>
    <g></g>
  </symbol>
  <symbol id="search" xmlns="http://www.w3.org/2000/svg" viewBox="0 0 21.8 23.8">
    <defs></defs>
    <path d="M11,17.9a8.7,8.7,0,0,0,.8,4.8,1,1,0,0,0,1.2.4.8.8,0,0,0,.4-1.2,8.3,8.3,0,0,1-.7-3.8,7.6,7.6,0,0,1,15.2,1.1A7.7,7.7,0,0,1,16.1,25a.8.8,0,0,0-1.2.2.9.9,0,0,0,.2,1.3A10,10,0,0,0,19.6,28a9.3,9.3,0,0,0,6.1-1.7l5.5,6.4a.9.9,0,0,0,.6.3.7.7,0,0,0,.7-.2.9.9,0,0,0,.1-1.2L27,25.2a8.9,8.9,0,0,0,2.6-5.8A9.3,9.3,0,1,0,11,17.9Z" transform="translate(-10.9 -9.3)"></path>
  </symbol>
  <symbol version="1.1" id="settings" xmlns="http://www.w3.org/2000/svg" xmlns:xlink="http://www.w3.org/1999/xlink" x="0px" y="0px" xml:space="preserve" viewBox="0 0 485.656 485.656">
    <g>
      <g>
        <path d="M334.512,312h-200c-2.122,0-4.156,0.844-5.656,2.344l-96,96l11.312,11.312L137.824,328h187.888
			c-1.664,9.496-6.888,24-23.2,24h-88v16h88c31.64,0,40-31.4,40-48C342.512,315.582,338.93,312,334.512,312z"></path>
      </g>
    </g>
    <g>
      <g>
        <path d="M436.168,258.344c-3.124-3.123-8.188-3.123-11.312,0l-72,72l11.312,11.312l65.712-65.712
			c10.828,14.37,8.629,34.68-5.024,46.4L331.2,416H166.512c-2.122,0-4.156,0.844-5.656,2.344l-56,56l11.312,11.312L169.824,432
			h164.688c2.122,0,4.156-0.844,5.656-2.344l96-96C465.96,303.864,449.192,271.368,436.168,258.344z"></path>
      </g>
    </g>
    <g>
      <g>
        <path d="M390.512,112H361.76c-2.193-7.348-5.139-14.45-8.792-21.192l20.344-20.344c3.123-3.124,3.123-8.188,0-11.312
			L339.36,25.208c-3.124-3.123-8.188-3.123-11.312,0l-20.344,20.344c-6.741-3.658-13.843-6.607-21.192-8.8V8c0-4.418-3.582-8-8-8
			h-48c-4.418,0-8,3.582-8,8v28.752c-7.349,2.193-14.451,5.142-21.192,8.8l-20.344-20.344c-3.124-3.123-8.188-3.123-11.312,0
			l-33.952,33.944c-3.123,3.124-3.123,8.188,0,11.312l20.352,20.344c-3.655,6.742-6.604,13.844-8.8,21.192h-28.752
			c-4.418,0-8,3.582-8,8v48c0,4.418,3.582,8,8,8h28.752c2.193,7.348,5.139,14.45,8.792,21.192l-20.344,20.344
			c-3.123,3.124-3.123,8.188,0,11.312l33.952,33.952c3.174,3.001,8.138,3.001,11.312,0l20.344-20.352
			c6.742,3.655,13.844,6.604,21.192,8.8V280c0,4.418,3.582,8,8,8h48c4.418,0,8-3.582,8-8v-28.752
			c7.348-2.194,14.449-5.14,21.192-8.792l20.344,20.344c1.5,1.5,3.534,2.344,5.656,2.344s4.156-0.844,5.656-2.344l33.944-33.952
			c3.123-3.124,3.123-8.188,0-11.312l-20.344-20.344c3.655-6.742,6.604-13.844,8.8-21.192h28.752c4.418,0,8-3.582,8-8v-48
			C398.512,115.582,394.93,112,390.512,112z M382.513,160h-26.888c-3.709,0.001-6.931,2.551-7.784,6.16
			c-2.366,9.945-6.309,19.447-11.68,28.144c-1.95,3.157-1.473,7.241,1.152,9.864l19.032,19.024l-22.64,22.64l-19.024-19.04
			c-2.623-2.625-6.707-3.102-9.864-1.152c-8.695,5.378-18.197,9.325-28.144,11.688c-3.609,0.853-6.159,4.075-6.16,7.784V272h-32
			v-26.88c-0.001-3.709-2.551-6.931-6.16-7.784c-9.947-2.363-19.449-6.31-28.144-11.688c-3.157-1.95-7.241-1.473-9.864,1.152
			l-19.024,19.04l-22.64-22.64l19.032-19.04c2.625-2.623,3.102-6.707,1.152-9.864c-5.371-8.698-9.314-18.199-11.68-28.144
			c-0.853-3.609-4.075-6.159-7.784-6.16h-26.888v-32H153.4c3.709-0.001,6.931-2.551,7.784-6.16
			c2.366-9.945,6.309-19.446,11.68-28.144c1.95-3.157,1.473-7.241-1.152-9.864L152.68,64.8l22.632-22.624l19.032,19.032
			c2.623,2.625,6.707,3.102,9.864,1.152c8.693-5.379,18.196-9.323,28.144-11.68c3.609-0.853,6.159-4.075,6.16-7.784V16h32v26.896
			c0.002,3.711,2.555,6.934,6.168,7.784c9.948,2.357,19.451,6.301,28.144,11.68c3.157,1.95,7.241,1.473,9.864-1.152l19.024-19.032
			L356.345,64.8l-19.032,19.032c-2.625,2.623-3.102,6.707-1.152,9.864c5.371,8.698,9.314,18.199,11.68,28.144
			c0.853,3.609,4.075,6.159,7.784,6.16h26.888V160z"></path>
      </g>
    </g>
    <g>
      <g>
        <path d="M254.512,96c-26.51,0-48,21.49-48,48s21.491,48,48,48c26.499-0.026,47.974-21.501,48-48
			C302.512,117.49,281.022,96,254.512,96z M254.512,176c-17.673,0-32-14.327-32-32c0-17.673,14.327-32,32-32
			c17.673,0,32,14.327,32,32C286.512,161.673,272.185,176,254.512,176z"></path>
      </g>
    </g>
    <g></g>
    <g></g>
    <g></g>
    <g></g>
    <g></g>
    <g></g>
    <g></g>
    <g></g>
    <g></g>
    <g></g>
    <g></g>
    <g></g>
    <g></g>
    <g></g>
    <g></g>
  </symbol>
  <symbol version="1.1" id="wordpress" xmlns="http://www.w3.org/2000/svg" xmlns:xlink="http://www.w3.org/1999/xlink" x="0px" y="0px" xml:space="preserve" viewBox="0 0 512 512">
    <g>
      <g>
        <g>
          <path d="M41.073,152.466c-1.425-3.903-5.074-6.551-9.226-6.696c-4.175-0.132-7.977,2.245-9.669,6.039
				C7.468,184.791,0.009,219.844,0.009,255.99c0,48.964,13.875,96.559,40.124,137.639c25.548,39.983,61.564,72.053,104.158,92.743
				c1.418,0.69,2.941,1.025,4.454,1.025c2.474,0,4.921-0.9,6.836-2.629c3.085-2.785,4.172-7.164,2.747-11.068L41.073,152.466z
				 M20.408,255.99c0-24.264,3.652-47.994,10.883-70.837l98.5,269.854C61.706,412.039,20.408,337.973,20.408,255.99z"></path>
          <path d="M345.376,480.765l-75.473-206.771c-1.471-4.028-5.3-6.702-9.58-6.702c-0.032,0-0.064,0-0.096,0
				c-4.318,0.041-8.143,2.796-9.55,6.88l-73.753,214.293c-0.907,2.633-0.697,5.523,0.581,7.998c1.278,2.475,3.513,4.319,6.185,5.106
				C207.225,508.492,231.555,512,256.001,512c29.053,0,57.656-4.883,85.015-14.514c2.907-1.024,5.195-3.307,6.226-6.212
				c1.031-2.905,0.692-6.121-0.922-8.747C345.897,481.836,345.594,481.272,345.376,480.765z M256.001,491.602
				c-18.944,0-37.814-2.291-56.238-6.818l60.841-176.773l63.36,173.59C301.937,488.241,279.126,491.602,256.001,491.602z"></path>
          <path d="M373.292,403.888c4.314,0,8.167-2.717,9.612-6.788l27.138-76.438c13.018-33.396,19.346-60.555,19.346-83.022
				c0-33.87-10.023-51.413-18.869-66.891c-0.054-0.094-0.109-0.189-0.167-0.283c-0.982-1.597-1.959-3.175-2.926-4.737
				c-10.569-17.065-19.698-31.803-19.698-47.571c0-16.074,11.879-33.424,31.069-33.424c0.317,0,0.804,0.041,1.321,0.085
				c0.404,0.034,0.805,0.067,1.209,0.093c4.329,0.281,8.341-2.2,10.038-6.179c1.696-3.979,0.699-8.597-2.492-11.52
				C381.573,23.87,320.18,0,256.001,0C169.666,0,89.708,43.127,42.115,115.365c-2.031,3.083-2.238,7.022-0.541,10.3
				c1.696,3.277,5.032,5.383,8.72,5.505c6.281,0.208,11.719,0.314,16.16,0.314c23.686,0,58.376-2.55,65.182-3.068
				c1.089,1.962,1.193,6.64,0.137,8.39c-2.685,0.3-14.319,1.553-26.893,2.209c-3.185,0.166-6.108,1.811-7.902,4.449
				c-1.794,2.636-2.251,5.961-1.235,8.984l80.48,239.565c1.395,4.153,5.286,6.951,9.668,6.951c0.004,0,0.008,0,0.011,0
				c4.386-0.005,8.278-2.813,9.665-6.973l53.793-161.323c0.738-2.214,0.696-4.613-0.122-6.8l-29.269-78.243
				c-1.416-3.782-4.928-6.373-8.959-6.608c-11.584-0.675-22.772-1.988-24.791-2.231c-0.919-1.946-0.707-6.437,0.377-8.368
				c7.002,0.524,42.099,3.064,64.336,3.064c23.69,0,58.382-2.55,65.184-3.068c1.09,1.961,1.196,6.641,0.139,8.389
				c-2.677,0.3-14.328,1.554-26.896,2.211c-3.193,0.166-6.123,1.821-7.916,4.469c-1.792,2.648-2.239,5.983-1.207,9.009
				l83.404,244.49c1.401,4.108,5.25,6.879,9.59,6.906C373.25,403.888,373.27,403.888,373.292,403.888z M303.83,158.48
				c8.698-0.708,14.988-1.437,15.375-1.483c11.726-1.386,19.321-12.743,18.061-27.005c-1.206-13.633-10.034-22.696-21.423-22.014
				c-0.065,0.004-0.133,0.008-0.198,0.013c-0.395,0.031-39.714,3.092-64.716,3.092c-23.477,0-63.551-3.063-63.953-3.093
				c-0.061-0.005-0.122-0.009-0.184-0.012c-11.588-0.695-20.652,9.083-21.489,23.228c-0.836,14.126,6.861,24.914,18.351,25.817
				c1.624,0.197,9.756,1.164,19.509,1.907l25.701,68.706l-43.012,128.993l-66.564-198.143c8.736-0.709,15.053-1.442,15.444-1.488
				c11.724-1.386,19.316-12.747,18.055-27.012c-1.207-13.629-10.032-22.697-21.419-22.007c-0.065,0.004-0.133,0.008-0.198,0.013
				c-0.374,0.031-35.884,2.795-60.879,3.071c44.547-57.103,112.646-90.666,185.71-90.666c51.924,0,101.868,16.978,142.757,48.187
				c-18.452,8.187-31.428,27.326-31.428,49.574c0,21.573,11.053,39.419,22.755,58.312c0.927,1.497,1.864,3.01,2.806,4.541
				c8.29,14.509,16.097,28.269,16.097,56.629c0,19.642-6.058,45.128-18.008,75.755c-0.038,0.098-0.074,0.196-0.109,0.295
				l-17.388,48.972L303.83,158.48z"></path>
          <path d="M480.631,133.175c-2.361-4.308-7.461-6.319-12.133-4.786c-4.669,1.538-7.577,6.188-6.917,11.059
				c1.038,7.665,1.566,15.707,1.566,23.901c0,26.824-5.711,53.594-17.971,84.247c-0.06,0.15-0.116,0.302-0.169,0.454l-75.07,217.056
				c-1.393,4.031-0.132,8.504,3.164,11.213c1.868,1.534,4.166,2.319,6.479,2.319c1.765,0,3.539-0.458,5.132-1.388
				c38.017-22.163,69.889-53.921,92.171-91.842c22.969-39.088,35.109-83.839,35.109-129.417
				C511.991,213.087,501.147,170.617,480.631,133.175z M399.158,443.029l65.051-188.086c9.331-23.375,15.137-44.781,17.736-65.726
				c6.365,21.591,9.65,44.116,9.65,66.774C491.595,329.489,456.798,398.762,399.158,443.029z"></path>
        </g>
      </g>
    </g>
    <g>
      <g>
        <path d="M262.286,369.734c-5.342-1.782-11.119,1.108-12.901,6.451l-1.36,4.079c-1.781,5.343,1.108,11.119,6.451,12.901
			c1.07,0.357,2.157,0.526,3.226,0.526c4.27,0,8.25-2.703,9.675-6.977l1.36-4.079C270.518,377.292,267.629,371.516,262.286,369.734z
			"></path>
      </g>
    </g>
    <g>
      <g>
        <path d="M249.707,407.472c-5.344-1.786-11.119,1.108-12.901,6.45l-16.999,50.996c-1.781,5.343,1.108,11.119,6.451,12.9
			c1.07,0.358,2.157,0.527,3.226,0.527c4.27,0,8.25-2.703,9.675-6.977l16.998-50.996
			C257.939,415.029,255.05,409.253,249.707,407.472z"></path>
      </g>
    </g>
    <g></g>
    <g></g>
    <g></g>
    <g></g>
    <g></g>
    <g></g>
    <g></g>
    <g></g>
    <g></g>
    <g></g>
    <g></g>
    <g></g>
    <g></g>
    <g></g>
    <g></g>
  </symbol>
</svg>